<svg xmlns="http://www.w3.org/2000/svg" xmlns:xlink="http://www.w3.org/1999/xlink" width="1080" zoomAndPan="magnify" viewBox="0 0 810 809.999993" height="1080" preserveAspectRatio="xMidYMid meet" version="1.0"><defs><g/><clipPath id="id1"><path d="M 84 592 L 359 592 L 359 810 L 84 810 Z M 84 592 " clip-rule="nonzero"/></clipPath><clipPath id="id2"><path d="M 255.019531 592.742188 L 358.503906 817.570312 L 188.179688 895.964844 L 84.695312 671.136719 Z M 255.019531 592.742188 " clip-rule="nonzero"/></clipPath><clipPath id="id3"><path d="M 255.019531 592.742188 L 595.882812 1333.3125 L 425.558594 1411.707031 L 84.695312 671.136719 Z M 255.019531 592.742188 " clip-rule="nonzero"/></clipPath><clipPath id="id4"><path d="M 242 610 L 517 610 L 517 810 L 242 810 Z M 242 610 " clip-rule="nonzero"/></clipPath><clipPath id="id5"><path d="M 412.519531 610.105469 L 516.003906 834.933594 L 345.679688 913.328125 L 242.195312 688.5 Z M 412.519531 610.105469 " clip-rule="nonzero"/></clipPath><clipPath id="id6"><path d="M 412.519531 610.105469 L 753.382812 1350.675781 L 583.058594 1429.070312 L 242.195312 688.5 Z M 412.519531 610.105469 " clip-rule="nonzero"/></clipPath><clipPath id="id7"><path d="M 414 625 L 689 625 L 689 810 L 414 810 Z M 414 625 " clip-rule="nonzero"/></clipPath><clipPath id="id8"><path d="M 584.753906 625.105469 L 688.234375 849.933594 L 517.910156 928.328125 L 414.429688 703.5 Z M 584.753906 625.105469 " clip-rule="nonzero"/></clipPath><clipPath id="id9"><path d="M 584.753906 625.105469 L 925.617188 1365.675781 L 755.292969 1444.070312 L 414.429688 703.5 Z M 584.753906 625.105469 " clip-rule="nonzero"/></clipPath><clipPath id="id10"><path d="M 572 640 L 810 640 L 810 810 L 572 810 Z M 572 640 " clip-rule="nonzero"/></clipPath><clipPath id="id11"><path d="M 742.414062 640.128906 L 845.722656 865.039062 L 675.335938 943.300781 L 572.027344 718.394531 Z M 742.414062 640.128906 " clip-rule="nonzero"/></clipPath><clipPath id="id12"><path d="M 742.414062 640.128906 L 1082.703125 1380.960938 L 912.320312 1459.226562 L 572.027344 718.394531 Z M 742.414062 640.128906 " clip-rule="nonzero"/></clipPath><clipPath id="id13"><path d="M 551 293 L 810 293 L 810 810 L 551 810 Z M 551 293 " clip-rule="nonzero"/></clipPath><clipPath id="id14"><path d="M 720.980469 293.417969 L 967.554688 817.292969 L 797.90625 897.140625 L 551.332031 373.269531 Z M 720.980469 293.417969 " clip-rule="nonzero"/></clipPath><clipPath id="id15"><path d="M 720.980469 293.417969 L 1068.164062 1031.046875 L 898.515625 1110.898438 L 551.332031 373.269531 Z M 720.980469 293.417969 " clip-rule="nonzero"/></clipPath><clipPath id="id16"><path d="M 610 117 L 810 117 L 810 732 L 610 732 Z M 610 117 " clip-rule="nonzero"/></clipPath><clipPath id="id17"><path d="M 715.871094 117.320312 L 981.609375 681.910156 L 875.75 731.734375 L 610.011719 167.148438 Z M 715.871094 117.320312 " clip-rule="nonzero"/></clipPath><clipPath id="id18"><path d="M 715.871094 117.320312 L 1151.53125 1042.917969 L 938.453125 1143.210938 L 502.792969 217.613281 Z M 715.871094 117.320312 " clip-rule="nonzero"/></clipPath><clipPath id="id19"><path d="M 95.363281 94.613281 L 719.363281 94.613281 L 719.363281 718.613281 L 95.363281 718.613281 Z M 95.363281 94.613281 " clip-rule="nonzero"/></clipPath><clipPath id="id20"><path d="M 665.773438 17.773438 L 792.523438 17.773438 L 792.523438 144.523438 L 665.773438 144.523438 Z M 665.773438 17.773438 " clip-rule="nonzero"/></clipPath><clipPath id="id21"><path d="M 17.773438 665.773438 L 144.21875 665.773438 L 144.21875 792.21875 L 17.773438 792.21875 Z M 17.773438 665.773438 " clip-rule="nonzero"/></clipPath></defs><g clip-path="url(#id1)"><g clip-path="url(#id2)"><g clip-path="url(#id3)"><path fill="rgb(100%, 8.628845%, 8.628845%)" d="M 254.949219 592.796875 L 595.796875 1333.332031 L 425.488281 1411.71875 L 84.640625 671.183594 Z M 254.949219 592.796875 " fill-opacity="1" fill-rule="nonzero"/></g></g></g><g clip-path="url(#id4)"><g clip-path="url(#id5)"><g clip-path="url(#id6)"><path fill="rgb(47.839355%, 23.139954%, 81.17981%)" d="M 412.449219 610.160156 L 753.296875 1350.695312 L 582.988281 1429.082031 L 242.140625 688.546875 Z M 412.449219 610.160156 " fill-opacity="1" fill-rule="nonzero"/></g></g></g><g clip-path="url(#id7)"><g clip-path="url(#id8)"><g clip-path="url(#id9)"><path fill="rgb(21.958923%, 71.369934%, 100%)" d="M 584.683594 625.160156 L 925.527344 1365.695312 L 755.21875 1444.082031 L 414.375 703.546875 Z M 584.683594 625.160156 " fill-opacity="1" fill-rule="nonzero"/></g></g></g><g clip-path="url(#id10)"><g clip-path="url(#id11)"><g clip-path="url(#id12)"><path fill="rgb(49.409485%, 85.099792%, 34.118652%)" d="M 742.339844 640.183594 L 1082.617188 1380.984375 L 912.246094 1459.238281 L 571.972656 718.441406 Z M 742.339844 640.183594 " fill-opacity="1" fill-rule="nonzero"/></g></g></g><g clip-path="url(#id13)"><g clip-path="url(#id14)"><g clip-path="url(#id15)"><path fill="rgb(92.939758%, 83.918762%, 0%)" d="M 720.90625 293.476562 L 1068.074219 1031.066406 L 898.445312 1110.910156 L 551.277344 373.316406 Z M 720.90625 293.476562 " fill-opacity="1" fill-rule="nonzero"/></g></g></g><g clip-path="url(#id16)"><g clip-path="url(#id17)"><g clip-path="url(#id18)"><path fill="rgb(100%, 56.858826%, 0%)" d="M 715.785156 117.390625 L 1151.421875 1042.945312 L 938.359375 1143.226562 L 502.722656 217.675781 Z M 715.785156 117.390625 " fill-opacity="1" fill-rule="nonzero"/></g></g></g><path fill="rgb(100%, 100%, 100%)" d="M 182.03125 709.945312 C 139.027344 709.945312 104.03125 674.949219 104.03125 631.945312 L 104.03125 181.28125 C 104.03125 138.277344 139.027344 103.28125 182.03125 103.28125 L 632.695312 103.28125 C 675.699219 103.28125 710.695312 138.277344 710.695312 181.28125 L 710.695312 631.945312 C 710.695312 674.949219 675.699219 709.945312 632.695312 709.945312 Z M 182.03125 709.945312 " fill-opacity="1" fill-rule="nonzero"/><g clip-path="url(#id19)"><path fill="rgb(100%, 100%, 100%)" d="M 632.695312 111.945312 C 670.933594 111.945312 702.03125 143.042969 702.03125 181.28125 L 702.03125 631.945312 C 702.03125 670.183594 670.933594 701.28125 632.695312 701.28125 L 182.03125 701.28125 C 143.792969 701.28125 112.695312 670.183594 112.695312 631.945312 L 112.695312 181.28125 C 112.695312 143.042969 143.792969 111.945312 182.03125 111.945312 L 632.695312 111.945312 M 632.695312 94.613281 L 182.03125 94.613281 C 134.171875 94.613281 95.363281 133.421875 95.363281 181.28125 L 95.363281 631.945312 C 95.363281 679.804688 134.171875 718.613281 182.03125 718.613281 L 632.695312 718.613281 C 680.554688 718.613281 719.363281 679.804688 719.363281 631.945312 L 719.363281 181.28125 C 719.363281 133.421875 680.554688 94.613281 632.695312 94.613281 Z M 632.695312 94.613281 " fill-opacity="1" fill-rule="nonzero"/></g><path fill="rgb(26.669312%, 25.878906%, 34.899902%)" d="M 643.046875 79.703125 L 168.453125 79.703125 C 120.242188 79.703125 80.453125 119.492188 80.453125 167.703125 L 80.453125 642.296875 C 80.453125 690.507812 120.242188 730.296875 168.453125 730.296875 L 643.046875 730.296875 C 691.257812 730.296875 731.046875 690.507812 731.046875 642.296875 L 731.046875 167.703125 C 731.046875 119.492188 691.257812 79.703125 643.046875 79.703125 M 711.605469 174.3125 L 711.605469 642.296875 C 711.605469 679.753906 680.503906 710.855469 643.046875 710.855469 L 168.453125 710.855469 C 130.996094 710.855469 99.894531 679.753906 99.894531 642.296875 L 99.894531 167.703125 C 99.894531 130.246094 130.996094 99.144531 168.453125 99.144531 L 643.046875 99.144531 C 680.503906 99.144531 711.605469 130.246094 711.605469 167.703125 L 711.605469 174.3125 " fill-opacity="1" fill-rule="nonzero"/><g fill="rgb(26.669312%, 25.878906%, 34.899902%)" fill-opacity="1"><g transform="translate(367.907067, 537.040411)"><g><path d="M 150.433594 -294.351562 C 146.027344 -304.316406 137.785156 -304.316406 133.1875 -294.351562 L 6.324219 -9.199219 C 3.832031 -3.640625 6.324219 0 12.074219 0 L 54.425781 0 C 58.640625 0 61.898438 -1.917969 63.429688 -6.132812 L 80.101562 -47.527344 L 203.707031 -47.527344 L 220.378906 -6.132812 C 221.914062 -1.917969 225.171875 0 229.386719 0 L 271.546875 0 C 277.488281 0 279.785156 -3.640625 277.488281 -9.199219 Z M 142 -200.640625 L 186.269531 -90.644531 L 97.542969 -90.644531 Z M 142 -200.640625 "/></g></g></g><g fill="rgb(26.669312%, 25.878906%, 34.899902%)" fill-opacity="1"><g transform="translate(164.480129, 556.939222)"><g><path d="M 226.46875 90.878906 C 232.082031 90.878906 234.617188 87.074219 232.082031 82.007812 L 50.507812 -276.613281 C 48.515625 -280.234375 45.980469 -281.683594 41.816406 -281.683594 L 17.378906 -281.683594 C 11.949219 -281.683594 9.234375 -278.0625 11.949219 -272.8125 L 193.519531 85.628906 C 195.332031 89.429688 198.046875 90.878906 202.03125 90.878906 Z M 226.46875 90.878906 "/></g></g></g><g fill="rgb(26.669312%, 25.878906%, 34.899902%)" fill-opacity="1"><g transform="translate(133.587112, 496.052614)"><g><path d="M 226.46875 90.878906 C 232.082031 90.878906 234.617188 87.074219 232.082031 82.007812 L 50.507812 -276.613281 C 48.515625 -280.234375 45.980469 -281.683594 41.816406 -281.683594 L 17.378906 -281.683594 C 11.949219 -281.683594 9.234375 -278.0625 11.949219 -272.8125 L 193.519531 85.628906 C 195.332031 89.429688 198.046875 90.878906 202.03125 90.878906 Z M 226.46875 90.878906 "/></g></g></g><g clip-path="url(#id20)"><path fill="rgb(26.669312%, 25.878906%, 34.899902%)" d="M 754.878906 144.523438 L 792.523438 144.523438 C 792.523438 127.410156 789.226562 110.808594 782.507812 95.21875 C 776.171875 80.132812 767.046875 66.570312 755.386719 54.910156 C 743.722656 43.25 730.160156 34.125 715.078125 27.785156 C 699.488281 21.066406 682.882812 17.773438 665.773438 17.773438 L 665.773438 55.417969 C 689.601562 55.417969 712.035156 64.671875 728.765625 81.527344 C 745.625 98.257812 754.878906 120.695312 754.878906 144.523438 Z M 754.878906 144.523438 " fill-opacity="1" fill-rule="nonzero"/></g><g clip-path="url(#id21)"><path fill="rgb(26.669312%, 25.878906%, 34.899902%)" d="M 55.113281 665.46875 L 17.46875 665.46875 C 17.46875 682.578125 20.761719 699.183594 27.480469 714.773438 C 33.820312 729.855469 42.945312 743.417969 54.605469 755.082031 C 66.265625 766.742188 79.828125 775.867188 94.914062 782.203125 C 110.503906 788.921875 127.105469 792.21875 144.21875 792.21875 L 144.21875 754.574219 C 120.390625 754.574219 97.953125 745.320312 81.222656 728.460938 C 64.367188 711.730469 55.113281 689.296875 55.113281 665.46875 Z M 55.113281 665.46875 " fill-opacity="1" fill-rule="nonzero"/></g></svg>