<svg xmlns="http://www.w3.org/2000/svg" xmlns:xlink="http://www.w3.org/1999/xlink" width="400" zoomAndPan="magnify" viewBox="0 0 300 74.999997" height="100" preserveAspectRatio="xMidYMid meet" version="1.0"><defs><g><g id="id1"/></g><clipPath id="id2"><path d="M 12.945312 49.621094 L 30.769531 49.621094 L 30.769531 63.75 L 12.945312 63.75 Z M 12.945312 49.621094 " clip-rule="nonzero"/></clipPath><clipPath id="id3"><path d="M 24.027344 49.667969 L 30.738281 64.242188 L 19.695312 69.320312 L 12.988281 54.75 Z M 24.027344 49.667969 " clip-rule="nonzero"/></clipPath><clipPath id="id4"><path d="M 24.027344 49.667969 L 46.121094 97.667969 L 35.082031 102.75 L 12.988281 54.75 Z M 24.027344 49.667969 " clip-rule="nonzero"/></clipPath><clipPath id="id5"><path d="M 23.183594 50.785156 L 41 50.785156 L 41 63.75 L 23.183594 63.75 Z M 23.183594 50.785156 " clip-rule="nonzero"/></clipPath><clipPath id="id6"><path d="M 34.238281 50.792969 L 40.945312 65.367188 L 29.90625 70.445312 L 23.199219 55.875 Z M 34.238281 50.792969 " clip-rule="nonzero"/></clipPath><clipPath id="id7"><path d="M 34.238281 50.792969 L 56.332031 98.792969 L 45.289062 103.875 L 23.199219 55.875 Z M 34.238281 50.792969 " clip-rule="nonzero"/></clipPath><clipPath id="id8"><path d="M 34.332031 51.757812 L 52.15625 51.757812 L 52.15625 63.75 L 34.332031 63.75 Z M 34.332031 51.757812 " clip-rule="nonzero"/></clipPath><clipPath id="id9"><path d="M 45.402344 51.765625 L 52.109375 66.339844 L 41.066406 71.417969 L 34.359375 56.847656 Z M 45.402344 51.765625 " clip-rule="nonzero"/></clipPath><clipPath id="id10"><path d="M 45.402344 51.765625 L 67.492188 99.765625 L 56.453125 104.847656 L 34.359375 56.847656 Z M 45.402344 51.765625 " clip-rule="nonzero"/></clipPath><clipPath id="id11"><path d="M 44.574219 52.730469 L 60 52.730469 L 60 63.75 L 44.574219 63.75 Z M 44.574219 52.730469 " clip-rule="nonzero"/></clipPath><clipPath id="id12"><path d="M 55.621094 52.738281 L 62.316406 67.316406 L 51.273438 72.390625 L 44.574219 57.8125 Z M 55.621094 52.738281 " clip-rule="nonzero"/></clipPath><clipPath id="id13"><path d="M 55.621094 52.738281 L 77.675781 100.757812 L 66.632812 105.828125 L 44.574219 57.8125 Z M 55.621094 52.738281 " clip-rule="nonzero"/></clipPath><clipPath id="id14"><path d="M 43.214844 30.242188 L 60 30.242188 L 60 63.75 L 43.214844 63.75 Z M 43.214844 30.242188 " clip-rule="nonzero"/></clipPath><clipPath id="id15"><path d="M 54.230469 30.269531 L 70.210938 64.222656 L 59.214844 69.398438 L 43.234375 35.445312 Z M 54.230469 30.269531 " clip-rule="nonzero"/></clipPath><clipPath id="id16"><path d="M 54.230469 30.269531 L 76.734375 78.078125 L 65.738281 83.253906 L 43.234375 35.445312 Z M 54.230469 30.269531 " clip-rule="nonzero"/></clipPath><clipPath id="id17"><path d="M 47.035156 18.832031 L 60 18.832031 L 60 58.695312 L 47.035156 58.695312 Z M 47.035156 18.832031 " clip-rule="nonzero"/></clipPath><clipPath id="id18"><path d="M 53.898438 18.855469 L 71.121094 55.449219 L 64.261719 58.675781 L 47.039062 22.082031 Z M 53.898438 18.855469 " clip-rule="nonzero"/></clipPath><clipPath id="id19"><path d="M 53.898438 18.855469 L 82.136719 78.847656 L 68.324219 85.347656 L 40.089844 25.355469 Z M 53.898438 18.855469 " clip-rule="nonzero"/></clipPath><clipPath id="id20"><path d="M 13.679688 17.382812 L 54.125 17.382812 L 54.125 57.828125 L 13.679688 57.828125 Z M 13.679688 17.382812 " clip-rule="nonzero"/></clipPath><clipPath id="id21"><path d="M 50.652344 12.402344 L 58.867188 12.402344 L 58.867188 20.617188 L 50.652344 20.617188 Z M 50.652344 12.402344 " clip-rule="nonzero"/></clipPath><clipPath id="id22"><path d="M 8.652344 54.402344 L 16.847656 54.402344 L 16.847656 62.597656 L 8.652344 62.597656 Z M 8.652344 54.402344 " clip-rule="nonzero"/></clipPath></defs><g clip-path="url(#id2)"><g clip-path="url(#id3)"><g clip-path="url(#id4)"><path fill="rgb(100%, 8.628845%, 8.628845%)" d="M 24.023438 49.671875 L 46.117188 97.667969 L 35.078125 102.75 L 12.984375 54.753906 Z M 24.023438 49.671875 " fill-opacity="1" fill-rule="nonzero"/></g></g></g><g clip-path="url(#id5)"><g clip-path="url(#id6)"><g clip-path="url(#id7)"><path fill="rgb(47.839355%, 23.139954%, 81.17981%)" d="M 34.234375 50.796875 L 56.324219 98.796875 L 45.285156 103.875 L 23.195312 55.878906 Z M 34.234375 50.796875 " fill-opacity="1" fill-rule="nonzero"/></g></g></g><g clip-path="url(#id8)"><g clip-path="url(#id9)"><g clip-path="url(#id10)"><path fill="rgb(21.958923%, 71.369934%, 100%)" d="M 45.394531 51.769531 L 67.488281 99.765625 L 56.449219 104.847656 L 34.359375 56.851562 Z M 45.394531 51.769531 " fill-opacity="1" fill-rule="nonzero"/></g></g></g><g clip-path="url(#id11)"><g clip-path="url(#id12)"><g clip-path="url(#id13)"><path fill="rgb(49.409485%, 85.099792%, 34.118652%)" d="M 55.613281 52.742188 L 77.667969 100.757812 L 66.628906 105.832031 L 44.574219 57.816406 Z M 55.613281 52.742188 " fill-opacity="1" fill-rule="nonzero"/></g></g></g><g clip-path="url(#id14)"><g clip-path="url(#id15)"><g clip-path="url(#id16)"><path fill="rgb(92.939758%, 83.918762%, 0%)" d="M 54.226562 30.273438 L 76.726562 78.078125 L 65.734375 83.253906 L 43.230469 35.445312 Z M 54.226562 30.273438 " fill-opacity="1" fill-rule="nonzero"/></g></g></g><g clip-path="url(#id17)"><g clip-path="url(#id18)"><g clip-path="url(#id19)"><path fill="rgb(100%, 56.858826%, 0%)" d="M 53.894531 18.859375 L 82.128906 78.847656 L 68.320312 85.347656 L 40.082031 25.359375 Z M 53.894531 18.859375 " fill-opacity="1" fill-rule="nonzero"/></g></g></g><path fill="rgb(100%, 100%, 100%)" d="M 19.296875 57.265625 C 16.511719 57.265625 14.242188 54.996094 14.242188 52.210938 L 14.242188 23 C 14.242188 20.210938 16.511719 17.945312 19.296875 17.945312 L 48.507812 17.945312 C 51.296875 17.945312 53.5625 20.210938 53.5625 23 L 53.5625 52.210938 C 53.5625 54.996094 51.296875 57.265625 48.507812 57.265625 Z M 19.296875 57.265625 " fill-opacity="1" fill-rule="nonzero"/><g clip-path="url(#id20)"><path fill="rgb(100%, 100%, 100%)" d="M 48.507812 18.503906 C 50.988281 18.503906 53.003906 20.519531 53.003906 23 L 53.003906 52.210938 C 53.003906 54.6875 50.988281 56.703125 48.507812 56.703125 L 19.296875 56.703125 C 16.820312 56.703125 14.804688 54.6875 14.804688 52.210938 L 14.804688 23 C 14.804688 20.519531 16.820312 18.503906 19.296875 18.503906 L 48.507812 18.503906 M 48.507812 17.382812 L 19.296875 17.382812 C 16.195312 17.382812 13.679688 19.898438 13.679688 23 L 13.679688 52.210938 C 13.679688 55.3125 16.195312 57.828125 19.296875 57.828125 L 48.507812 57.828125 C 51.609375 57.828125 54.125 55.3125 54.125 52.210938 L 54.125 23 C 54.125 19.898438 51.609375 17.382812 48.507812 17.382812 Z M 48.507812 17.382812 " fill-opacity="1" fill-rule="nonzero"/></g><path fill="rgb(26.669312%, 25.878906%, 34.899902%)" d="M 49.179688 16.414062 L 18.417969 16.414062 C 15.292969 16.414062 12.714844 18.996094 12.714844 22.121094 L 12.714844 52.878906 C 12.714844 56.003906 15.292969 58.585938 18.417969 58.585938 L 49.179688 58.585938 C 52.304688 58.585938 54.882812 56.003906 54.882812 52.878906 L 54.882812 22.121094 C 54.882812 18.996094 52.304688 16.414062 49.179688 16.414062 M 53.621094 22.546875 L 53.621094 52.878906 C 53.621094 55.308594 51.605469 57.324219 49.179688 57.324219 L 18.417969 57.324219 C 15.992188 57.324219 13.976562 55.308594 13.976562 52.878906 L 13.976562 22.121094 C 13.976562 19.691406 15.992188 17.675781 18.417969 17.675781 L 49.179688 17.675781 C 51.605469 17.675781 53.621094 19.691406 53.621094 22.121094 L 53.621094 22.546875 " fill-opacity="1" fill-rule="nonzero"/><path fill="rgb(26.669312%, 25.878906%, 34.899902%)" d="M 41.097656 26.980469 C 40.8125 26.332031 40.277344 26.332031 39.976562 26.980469 L 31.753906 45.460938 C 31.59375 45.820312 31.753906 46.058594 32.128906 46.058594 L 34.875 46.058594 C 35.148438 46.058594 35.359375 45.933594 35.457031 45.660156 L 36.539062 42.976562 L 44.550781 42.976562 L 45.628906 45.660156 C 45.730469 45.933594 45.941406 46.058594 46.214844 46.058594 L 48.945312 46.058594 C 49.332031 46.058594 49.480469 45.820312 49.332031 45.460938 Z M 40.550781 33.054688 L 43.417969 40.183594 L 37.667969 40.183594 Z M 40.550781 33.054688 " fill-opacity="1" fill-rule="nonzero"/><path fill="rgb(26.669312%, 25.878906%, 34.899902%)" d="M 32.839844 53.238281 C 33.203125 53.238281 33.367188 52.992188 33.203125 52.664062 L 21.433594 29.417969 C 21.304688 29.183594 21.140625 29.089844 20.871094 29.089844 L 19.289062 29.089844 C 18.933594 29.089844 18.757812 29.324219 18.933594 29.664062 L 30.703125 52.898438 C 30.820312 53.144531 30.996094 53.238281 31.253906 53.238281 Z M 32.839844 53.238281 " fill-opacity="1" fill-rule="nonzero"/><path fill="rgb(26.669312%, 25.878906%, 34.899902%)" d="M 30.835938 49.292969 C 31.199219 49.292969 31.363281 49.046875 31.199219 48.71875 L 19.433594 25.472656 C 19.304688 25.238281 19.136719 25.144531 18.867188 25.144531 L 17.285156 25.144531 C 16.933594 25.144531 16.757812 25.378906 16.933594 25.71875 L 28.703125 48.953125 C 28.820312 49.199219 28.996094 49.292969 29.253906 49.292969 Z M 30.835938 49.292969 " fill-opacity="1" fill-rule="nonzero"/><g clip-path="url(#id21)"><path fill="rgb(26.669312%, 25.878906%, 34.899902%)" d="M 56.425781 20.617188 L 58.867188 20.617188 C 58.867188 19.507812 58.652344 18.433594 58.21875 17.421875 C 57.808594 16.445312 57.214844 15.566406 56.460938 14.808594 C 55.703125 14.054688 54.824219 13.460938 53.847656 13.050781 C 52.835938 12.617188 51.761719 12.402344 50.652344 12.402344 L 50.652344 14.84375 C 52.195312 14.84375 53.652344 15.441406 54.734375 16.535156 C 55.828125 17.617188 56.425781 19.074219 56.425781 20.617188 Z M 56.425781 20.617188 " fill-opacity="1" fill-rule="nonzero"/></g><g clip-path="url(#id22)"><path fill="rgb(26.669312%, 25.878906%, 34.899902%)" d="M 11.070312 54.382812 L 8.632812 54.382812 C 8.632812 55.492188 8.84375 56.566406 9.28125 57.578125 C 9.691406 58.554688 10.285156 59.433594 11.039062 60.191406 C 11.796875 60.945312 12.675781 61.539062 13.652344 61.949219 C 14.664062 62.382812 15.738281 62.597656 16.847656 62.597656 L 16.847656 60.15625 C 15.304688 60.15625 13.847656 59.558594 12.765625 58.464844 C 11.671875 57.378906 11.070312 55.925781 11.070312 54.382812 Z M 11.070312 54.382812 " fill-opacity="1" fill-rule="nonzero"/></g><g fill="rgb(26.669312%, 25.878906%, 34.899902%)" fill-opacity="1"><g transform="translate(80.302697, 51.749995)"><g><path d="M 24.078125 0 L 21.328125 -6.46875 L 7.828125 -6.46875 L 5.046875 0 L 0 0 L 12.484375 -27.59375 L 16.546875 -27.59375 L 29.078125 0 Z M 9.5 -10.34375 L 19.65625 -10.34375 L 14.578125 -22.171875 Z M 9.5 -10.34375 "/></g></g></g><g fill="rgb(26.669312%, 25.878906%, 34.899902%)" fill-opacity="1"><g transform="translate(109.376902, 51.749995)"><g><path d="M 11.90625 -24.6875 C 9.8125 -24.6875 8.765625 -23.539062 8.765625 -21.25 L 8.765625 -19.578125 L 13.140625 -19.578125 L 13.140625 -15.9375 L 8.765625 -15.9375 L 8.765625 0 L 3.921875 0 L 3.921875 -15.9375 L 0.1875 -15.9375 L 0.1875 -19.578125 L 3.921875 -19.578125 L 3.921875 -21.46875 C 3.921875 -23.800781 4.503906 -25.59375 5.671875 -26.84375 C 6.847656 -28.09375 8.535156 -28.71875 10.734375 -28.71875 C 11.953125 -28.71875 12.972656 -28.566406 13.796875 -28.265625 L 13.796875 -24.421875 C 13.078125 -24.597656 12.445312 -24.6875 11.90625 -24.6875 Z M 11.90625 -24.6875 "/></g></g></g><g fill="rgb(26.669312%, 25.878906%, 34.899902%)" fill-opacity="1"><g transform="translate(123.603875, 51.749995)"><g><path d="M 11.515625 0.3125 C 9.523438 0.3125 7.773438 -0.0976562 6.265625 -0.921875 C 4.753906 -1.753906 3.585938 -2.9375 2.765625 -4.46875 C 1.953125 -6.007812 1.546875 -7.816406 1.546875 -9.890625 C 1.546875 -11.953125 1.953125 -13.75 2.765625 -15.28125 C 3.585938 -16.820312 4.753906 -18.003906 6.265625 -18.828125 C 7.773438 -19.660156 9.523438 -20.078125 11.515625 -20.078125 C 13.472656 -20.078125 15.203125 -19.660156 16.703125 -18.828125 C 18.203125 -18.003906 19.359375 -16.820312 20.171875 -15.28125 C 20.992188 -13.75 21.40625 -11.953125 21.40625 -9.890625 C 21.40625 -7.816406 20.992188 -6.007812 20.171875 -4.46875 C 19.359375 -2.9375 18.203125 -1.753906 16.703125 -0.921875 C 15.203125 -0.0976562 13.472656 0.3125 11.515625 0.3125 Z M 11.46875 -3.484375 C 13.125 -3.484375 14.382812 -4.019531 15.25 -5.09375 C 16.113281 -6.164062 16.546875 -7.765625 16.546875 -9.890625 C 16.546875 -11.984375 16.109375 -13.578125 15.234375 -14.671875 C 14.359375 -15.773438 13.117188 -16.328125 11.515625 -16.328125 C 9.890625 -16.328125 8.632812 -15.773438 7.75 -14.671875 C 6.875 -13.578125 6.4375 -11.984375 6.4375 -9.890625 C 6.4375 -7.765625 6.867188 -6.164062 7.734375 -5.09375 C 8.597656 -4.019531 9.84375 -3.484375 11.46875 -3.484375 Z M 11.46875 -3.484375 "/></g></g></g><g fill="rgb(26.669312%, 25.878906%, 34.899902%)" fill-opacity="1"><g transform="translate(146.553111, 51.749995)"><g><path d="M 13.84375 -20.078125 C 18.519531 -20.078125 20.859375 -17.390625 20.859375 -12.015625 L 20.859375 0 L 16.015625 0 L 16.015625 -11.78125 C 16.015625 -13.332031 15.71875 -14.460938 15.125 -15.171875 C 14.53125 -15.890625 13.609375 -16.25 12.359375 -16.25 C 10.890625 -16.25 9.703125 -15.773438 8.796875 -14.828125 C 7.890625 -13.878906 7.4375 -12.632812 7.4375 -11.09375 L 7.4375 0 L 2.640625 0 L 2.640625 -14.03125 C 2.640625 -16.101562 2.535156 -17.953125 2.328125 -19.578125 L 6.859375 -19.578125 L 7.203125 -16.359375 C 7.878906 -17.546875 8.789062 -18.460938 9.9375 -19.109375 C 11.09375 -19.753906 12.394531 -20.078125 13.84375 -20.078125 Z M 13.84375 -20.078125 "/></g></g></g><g fill="rgb(26.669312%, 25.878906%, 34.899902%)" fill-opacity="1"><g transform="translate(169.928777, 51.749995)"><g><path d="M 9.8125 0.3125 C 6.269531 0.3125 3.453125 -0.515625 1.359375 -2.171875 L 2.71875 -5.578125 C 4.8125 -4.023438 7.203125 -3.25 9.890625 -3.25 C 11.046875 -3.25 11.941406 -3.441406 12.578125 -3.828125 C 13.210938 -4.222656 13.53125 -4.769531 13.53125 -5.46875 C 13.53125 -6.0625 13.3125 -6.53125 12.875 -6.875 C 12.4375 -7.226562 11.6875 -7.535156 10.625 -7.796875 L 7.359375 -8.53125 C 3.796875 -9.300781 2.015625 -11.125 2.015625 -14 C 2.015625 -15.1875 2.347656 -16.238281 3.015625 -17.15625 C 3.691406 -18.070312 4.632812 -18.785156 5.84375 -19.296875 C 7.0625 -19.816406 8.472656 -20.078125 10.078125 -20.078125 C 11.472656 -20.078125 12.816406 -19.863281 14.109375 -19.4375 C 15.398438 -19.007812 16.535156 -18.394531 17.515625 -17.59375 L 16.09375 -14.296875 C 14.125 -15.742188 12.109375 -16.46875 10.046875 -16.46875 C 8.929688 -16.46875 8.0625 -16.257812 7.4375 -15.84375 C 6.820312 -15.4375 6.515625 -14.875 6.515625 -14.15625 C 6.515625 -13.582031 6.703125 -13.125 7.078125 -12.78125 C 7.453125 -12.445312 8.09375 -12.164062 9 -11.9375 L 12.328125 -11.203125 C 14.265625 -10.765625 15.675781 -10.085938 16.5625 -9.171875 C 17.457031 -8.253906 17.90625 -7.054688 17.90625 -5.578125 C 17.90625 -3.773438 17.179688 -2.34375 15.734375 -1.28125 C 14.285156 -0.21875 12.3125 0.3125 9.8125 0.3125 Z M 9.8125 0.3125 "/></g></g></g><g fill="rgb(26.669312%, 25.878906%, 34.899902%)" fill-opacity="1"><g transform="translate(189.35035, 51.749995)"><g><path d="M 11.515625 0.3125 C 9.523438 0.3125 7.773438 -0.0976562 6.265625 -0.921875 C 4.753906 -1.753906 3.585938 -2.9375 2.765625 -4.46875 C 1.953125 -6.007812 1.546875 -7.816406 1.546875 -9.890625 C 1.546875 -11.953125 1.953125 -13.75 2.765625 -15.28125 C 3.585938 -16.820312 4.753906 -18.003906 6.265625 -18.828125 C 7.773438 -19.660156 9.523438 -20.078125 11.515625 -20.078125 C 13.472656 -20.078125 15.203125 -19.660156 16.703125 -18.828125 C 18.203125 -18.003906 19.359375 -16.820312 20.171875 -15.28125 C 20.992188 -13.75 21.40625 -11.953125 21.40625 -9.890625 C 21.40625 -7.816406 20.992188 -6.007812 20.171875 -4.46875 C 19.359375 -2.9375 18.203125 -1.753906 16.703125 -0.921875 C 15.203125 -0.0976562 13.472656 0.3125 11.515625 0.3125 Z M 11.46875 -3.484375 C 13.125 -3.484375 14.382812 -4.019531 15.25 -5.09375 C 16.113281 -6.164062 16.546875 -7.765625 16.546875 -9.890625 C 16.546875 -11.984375 16.109375 -13.578125 15.234375 -14.671875 C 14.359375 -15.773438 13.117188 -16.328125 11.515625 -16.328125 C 9.890625 -16.328125 8.632812 -15.773438 7.75 -14.671875 C 6.875 -13.578125 6.4375 -11.984375 6.4375 -9.890625 C 6.4375 -7.765625 6.867188 -6.164062 7.734375 -5.09375 C 8.597656 -4.019531 9.84375 -3.484375 11.46875 -3.484375 Z M 11.46875 -3.484375 "/></g></g></g><g fill="rgb(26.669312%, 25.878906%, 34.899902%)" fill-opacity="1"><g transform="translate(212.299586, 51.749995)"><g><path d="M 2.984375 -27.59375 L 13.140625 -27.59375 C 17.660156 -27.59375 21.164062 -26.390625 23.65625 -23.984375 C 26.15625 -21.585938 27.40625 -18.207031 27.40625 -13.84375 C 27.40625 -9.445312 26.15625 -6.039062 23.65625 -3.625 C 21.164062 -1.207031 17.660156 0 13.140625 0 L 2.984375 0 Z M 12.828125 -4.078125 C 19.191406 -4.078125 22.375 -7.332031 22.375 -13.84375 C 22.375 -20.300781 19.191406 -23.53125 12.828125 -23.53125 L 7.984375 -23.53125 L 7.984375 -4.078125 Z M 12.828125 -4.078125 "/></g></g></g><g fill="rgb(26.669312%, 25.878906%, 34.899902%)" fill-opacity="1"><g transform="translate(241.838981, 51.749995)"><g><path d="M 19.765625 -9.53125 L 6.28125 -9.53125 C 6.382812 -7.4375 6.90625 -5.890625 7.84375 -4.890625 C 8.789062 -3.898438 10.195312 -3.40625 12.0625 -3.40625 C 14.207031 -3.40625 16.195312 -4.101562 18.03125 -5.5 L 19.421875 -2.171875 C 18.492188 -1.421875 17.347656 -0.816406 15.984375 -0.359375 C 14.628906 0.0859375 13.253906 0.3125 11.859375 0.3125 C 8.660156 0.3125 6.140625 -0.585938 4.296875 -2.390625 C 2.460938 -4.203125 1.546875 -6.6875 1.546875 -9.84375 C 1.546875 -11.832031 1.945312 -13.601562 2.75 -15.15625 C 3.550781 -16.707031 4.675781 -17.914062 6.125 -18.78125 C 7.570312 -19.644531 9.210938 -20.078125 11.046875 -20.078125 C 13.734375 -20.078125 15.859375 -19.203125 17.421875 -17.453125 C 18.984375 -15.710938 19.765625 -13.316406 19.765625 -10.265625 Z M 11.171875 -16.59375 C 9.867188 -16.59375 8.8125 -16.207031 8 -15.4375 C 7.1875 -14.675781 6.664062 -13.578125 6.4375 -12.140625 L 15.546875 -12.140625 C 15.390625 -13.609375 14.941406 -14.71875 14.203125 -15.46875 C 13.472656 -16.21875 12.460938 -16.59375 11.171875 -16.59375 Z M 11.171875 -16.59375 "/></g></g></g><g fill="rgb(26.669312%, 25.878906%, 34.899902%)" fill-opacity="1"><g transform="translate(263.082533, 51.749995)"><g><path d="M 16.359375 -19.53125 L 21.171875 -19.53125 L 12.59375 0 L 8.375 0 L -0.078125 -19.53125 L 5 -19.53125 L 10.625 -5.5 Z M 16.359375 -19.53125 "/></g></g></g></svg>